<svg width="378" height="139" viewBox="0 0 378 139" fill="none" xmlns="http://www.w3.org/2000/svg">
<rect x="0.770702" y="0.770702" width="375.48" height="137.233" rx="21.312" fill="#6B86E7" stroke="#6B86E7" stroke-width="1.54063"/>
<path d="M74.1455 53.0127C76.574 52.0951 79.0692 51.3691 81.5059 51.625L81.5684 51.6318L81.6309 51.6338C85.8812 51.7669 90.0004 53.7389 92.8145 56.9131C88.3566 60.3502 85.6172 65.7431 85.5439 71.4209V71.4453C85.5511 78.0763 89.3161 84.2416 95.1055 87.335C94.0178 90.4156 92.5127 93.3349 90.6289 96.0088L90.6162 96.0254L90.6045 96.0439C89.07 98.3416 87.6094 100.435 85.9609 101.976C84.3473 103.484 82.6675 104.355 80.6855 104.387H80.6738C78.6167 104.434 77.2762 103.855 75.5381 103.114C73.7529 102.354 71.6629 101.483 68.4785 101.483C65.2923 101.483 63.1788 102.288 61.3545 103.051C59.5597 103.801 58.218 104.418 56.2119 104.501C54.4572 104.563 52.7556 103.692 50.9883 102.031C49.2195 100.369 47.6049 98.1275 46.0166 95.8545C42.9973 91.439 40.2835 85.1637 39.1318 78.6279C37.978 72.0792 38.4256 65.4796 41.4482 60.2412L41.4619 60.2178C44.2353 55.2294 49.562 51.9777 55.2607 51.793C57.2965 51.7555 59.3385 52.4461 61.4238 53.2705C62.4197 53.6642 63.487 54.1134 64.4502 54.4443C65.413 54.7751 66.4682 55.0615 67.501 55.0615C68.5553 55.0615 69.6961 54.711 70.7236 54.3398C71.7181 53.9806 73.0393 53.4307 74.1455 53.0127ZM80.0625 33.9639C79.9019 37.1737 78.709 40.2649 76.6328 42.7598L76.6133 42.7832C74.6469 45.2311 71.7202 46.8465 68.6201 47.2588C68.8039 44.1382 70.0348 41.0907 72.1006 38.7373H72.1016C74.2028 36.3416 76.9917 34.6804 80.0625 33.9639Z" fill="white" stroke="white" stroke-width="3.42042"/>
<path d="M255.816 65.5203V72.4674H251.465V77.0232H255.816V92.5031C255.816 97.789 258.204 99.9033 264.214 99.9033C265.27 99.9033 266.276 99.7774 267.156 99.6264V95.1209C266.402 95.1964 265.924 95.2467 265.094 95.2467C262.404 95.2467 261.222 93.9882 261.222 91.1188V77.0232H267.156V72.4674H261.222V65.5203H255.816Z" fill="white"/>
<path d="M282.466 100.281C290.463 100.281 295.366 94.9195 295.366 86.0343C295.366 77.1994 290.438 71.8129 282.466 71.8129C274.47 71.8129 269.541 77.1994 269.541 86.0343C269.541 94.9195 274.445 100.281 282.466 100.281ZM282.466 95.4733C277.764 95.4733 275.124 92.0249 275.124 86.0343C275.124 80.094 277.764 76.6205 282.466 76.6205C287.143 76.6205 289.809 80.094 289.809 86.0343C289.809 91.9997 287.143 95.4733 282.466 95.4733Z" fill="white"/>
<path d="M299.562 99.7523H304.968V83.5676C304.968 79.7165 307.86 77.1239 311.959 77.1239C312.914 77.1239 314.523 77.3001 314.976 77.4511V72.115C314.398 71.9639 313.367 71.8884 312.562 71.8884C308.991 71.8884 305.949 73.8517 305.169 76.545H304.767V72.3415H299.562V99.7523Z" fill="white"/>
<path d="M328.4 76.4191C332.398 76.4191 335.013 79.2131 335.139 83.5172H321.309C321.611 79.2382 324.402 76.4191 328.4 76.4191ZM335.114 92.3521C334.108 94.4916 331.87 95.6746 328.601 95.6746C324.276 95.6746 321.485 92.629 321.309 87.8214V87.5194H340.646V85.6316C340.646 77.0232 336.044 71.8129 328.425 71.8129C320.705 71.8129 315.802 77.3756 315.802 86.135C315.802 94.8943 320.605 100.281 328.45 100.281C334.712 100.281 339.087 97.2604 340.319 92.3521H335.114Z" fill="white"/>
<path d="M220.361 89.6299C220.778 96.3608 226.382 100.665 234.722 100.665C243.636 100.665 249.213 96.152 249.213 88.9516C249.213 83.2904 246.033 80.1598 238.319 78.3596L234.175 77.3422C229.275 76.1943 227.294 74.6551 227.294 71.9679C227.294 68.5764 230.369 66.3589 234.983 66.3589C239.361 66.3589 242.384 68.5242 242.932 71.994H248.614C248.275 65.6545 242.697 61.1934 235.061 61.1934C226.851 61.1934 221.378 65.6545 221.378 72.3593C221.378 77.89 224.479 81.1772 231.282 82.7686L236.129 83.9426C241.107 85.1166 243.297 86.8384 243.297 89.7082C243.297 93.0475 239.856 95.4737 235.165 95.4737C230.135 95.4737 226.642 93.204 226.147 89.6299H220.361Z" fill="white"/>
<path d="M164.356 71.8884C160.635 71.8884 157.416 73.7511 155.756 76.8722H155.354V72.3415H150.149V108.864H155.555V95.5991H155.983C157.416 98.4937 160.509 100.205 164.407 100.205C171.322 100.205 175.722 94.7433 175.722 86.0343C175.722 77.3253 171.322 71.8884 164.356 71.8884ZM162.822 95.3474C158.296 95.3474 155.455 91.7732 155.455 86.0595C155.455 80.3206 158.296 76.7464 162.848 76.7464C167.424 76.7464 170.165 80.2451 170.165 86.0343C170.165 91.8487 167.424 95.3474 162.822 95.3474Z" fill="white"/>
<path d="M194.64 71.8884C190.919 71.8884 187.7 73.7511 186.04 76.8722H185.638V72.3415H180.433V108.864H185.839V95.5991H186.267C187.7 98.4937 190.793 100.205 194.691 100.205C201.606 100.205 206.006 94.7433 206.006 86.0343C206.006 77.3253 201.606 71.8884 194.64 71.8884ZM193.106 95.3474C188.58 95.3474 185.739 91.7732 185.739 86.0595C185.739 80.3206 188.58 76.7464 193.132 76.7464C197.708 76.7464 200.449 80.2451 200.449 86.0343C200.449 91.8487 197.708 95.3474 193.106 95.3474Z" fill="white"/>
<path d="M140.449 99.7523H146.652L133.073 62.1065H126.792L113.213 99.7523H119.207L122.674 89.7603H137.009L140.449 99.7523ZM129.633 68.9417H130.076L135.523 84.8557H124.159L129.633 68.9417Z" fill="white"/>
<path d="M255.816 65.5203V72.4674H251.465V77.0232H255.816V92.5031C255.816 97.789 258.204 99.9033 264.214 99.9033C265.27 99.9033 266.276 99.7774 267.156 99.6264V95.1209C266.402 95.1964 265.924 95.2467 265.094 95.2467C262.404 95.2467 261.222 93.9882 261.222 91.1188V77.0232H267.156V72.4674H261.222V65.5203H255.816Z" stroke="#6B86E7"/>
<path d="M282.466 100.281C290.463 100.281 295.366 94.9195 295.366 86.0343C295.366 77.1994 290.438 71.8129 282.466 71.8129C274.47 71.8129 269.541 77.1994 269.541 86.0343C269.541 94.9195 274.445 100.281 282.466 100.281ZM282.466 95.4733C277.764 95.4733 275.124 92.0249 275.124 86.0343C275.124 80.094 277.764 76.6205 282.466 76.6205C287.143 76.6205 289.809 80.094 289.809 86.0343C289.809 91.9997 287.143 95.4733 282.466 95.4733Z" stroke="#6B86E7"/>
<path d="M299.562 99.7523H304.968V83.5676C304.968 79.7165 307.86 77.1239 311.959 77.1239C312.914 77.1239 314.523 77.3001 314.976 77.4511V72.115C314.398 71.9639 313.367 71.8884 312.562 71.8884C308.991 71.8884 305.949 73.8517 305.169 76.545H304.767V72.3415H299.562V99.7523Z" stroke="#6B86E7"/>
<path d="M328.4 76.4191C332.398 76.4191 335.013 79.2131 335.139 83.5172H321.309C321.611 79.2382 324.402 76.4191 328.4 76.4191ZM335.114 92.3521C334.108 94.4916 331.87 95.6746 328.601 95.6746C324.276 95.6746 321.485 92.629 321.309 87.8214V87.5194H340.646V85.6316C340.646 77.0232 336.044 71.8129 328.425 71.8129C320.705 71.8129 315.802 77.3756 315.802 86.135C315.802 94.8943 320.605 100.281 328.45 100.281C334.712 100.281 339.087 97.2604 340.319 92.3521H335.114Z" stroke="#6B86E7"/>
<path d="M220.361 89.6299C220.778 96.3608 226.382 100.665 234.722 100.665C243.636 100.665 249.213 96.152 249.213 88.9516C249.213 83.2904 246.033 80.1598 238.319 78.3596L234.175 77.3422C229.275 76.1943 227.294 74.6551 227.294 71.9679C227.294 68.5764 230.369 66.3589 234.983 66.3589C239.361 66.3589 242.384 68.5242 242.932 71.994H248.614C248.275 65.6545 242.697 61.1934 235.061 61.1934C226.851 61.1934 221.378 65.6545 221.378 72.3593C221.378 77.89 224.479 81.1772 231.282 82.7686L236.129 83.9426C241.107 85.1166 243.297 86.8384 243.297 89.7082C243.297 93.0475 239.856 95.4737 235.165 95.4737C230.135 95.4737 226.642 93.204 226.147 89.6299H220.361Z" stroke="#6B86E7"/>
<path d="M164.356 71.8884C160.635 71.8884 157.416 73.7511 155.756 76.8722H155.354V72.3415H150.149V108.864H155.555V95.5991H155.983C157.416 98.4937 160.509 100.205 164.407 100.205C171.322 100.205 175.722 94.7433 175.722 86.0343C175.722 77.3253 171.322 71.8884 164.356 71.8884ZM162.822 95.3474C158.296 95.3474 155.455 91.7732 155.455 86.0595C155.455 80.3206 158.296 76.7464 162.848 76.7464C167.424 76.7464 170.165 80.2451 170.165 86.0343C170.165 91.8487 167.424 95.3474 162.822 95.3474Z" stroke="#6B86E7"/>
<path d="M194.64 71.8884C190.919 71.8884 187.7 73.7511 186.04 76.8722H185.638V72.3415H180.433V108.864H185.839V95.5991H186.267C187.7 98.4937 190.793 100.205 194.691 100.205C201.606 100.205 206.006 94.7433 206.006 86.0343C206.006 77.3253 201.606 71.8884 194.64 71.8884ZM193.106 95.3474C188.58 95.3474 185.739 91.7732 185.739 86.0595C185.739 80.3206 188.58 76.7464 193.132 76.7464C197.708 76.7464 200.449 80.2451 200.449 86.0343C200.449 91.8487 197.708 95.3474 193.106 95.3474Z" stroke="#6B86E7"/>
<path d="M140.449 99.7523H146.652L133.073 62.1065H126.792L113.213 99.7523H119.207L122.674 89.7603H137.009L140.449 99.7523ZM129.633 68.9417H130.076L135.523 84.8557H124.159L129.633 68.9417Z" stroke="#6B86E7"/>
<path d="M113.062 35.5544V50.4349H118.43C122.86 50.4349 125.425 47.7021 125.425 42.9482C125.425 38.2665 122.839 35.5544 118.43 35.5544H113.062ZM115.37 37.6581H118.172C121.253 37.6581 123.076 39.6174 123.076 42.9792C123.076 46.3925 121.284 48.3312 118.172 48.3312H115.37V37.6581Z" fill="white"/>
<path d="M133.281 50.6514C136.557 50.6514 138.566 48.4549 138.566 44.8147C138.566 41.1952 136.547 38.9884 133.281 38.9884C130.005 38.9884 127.986 41.1952 127.986 44.8147C127.986 48.4549 129.995 50.6514 133.281 50.6514ZM133.281 48.6818C131.355 48.6818 130.273 47.269 130.273 44.8147C130.273 42.3811 131.355 40.958 133.281 40.958C135.198 40.958 136.29 42.3811 136.29 44.8147C136.29 47.2587 135.198 48.6818 133.281 48.6818Z" fill="white"/>
<path d="M155.674 39.2049H153.459L151.46 47.7743H151.285L148.978 39.2049H146.855L144.548 47.7743H144.383L142.374 39.2049H140.128L143.219 50.4349H145.496L147.803 42.1645H147.978L150.296 50.4349H152.594L155.674 39.2049Z" fill="white"/>
<path d="M158.225 50.4349H160.44V43.866C160.44 42.113 161.48 41.0199 163.118 41.0199C164.756 41.0199 165.539 41.917 165.539 43.7216V50.4349H167.754V43.1648C167.754 40.4939 166.374 38.9884 163.87 38.9884C162.181 38.9884 161.068 39.7412 160.522 40.9889H160.357V39.2049H158.225V50.4349Z" fill="white"/>
<path d="M171.243 50.4349H173.457V34.8223H171.243V50.4349Z" fill="white"/>
<path d="M181.788 50.6514C185.064 50.6514 187.073 48.4549 187.073 44.8147C187.073 41.1952 185.053 38.9884 181.788 38.9884C178.512 38.9884 176.492 41.1952 176.492 44.8147C176.492 48.4549 178.501 50.6514 181.788 50.6514ZM181.788 48.6818C179.861 48.6818 178.78 47.269 178.78 44.8147C178.78 42.3811 179.861 40.958 181.788 40.958C183.704 40.958 184.796 42.3811 184.796 44.8147C184.796 47.2587 183.704 48.6818 181.788 48.6818Z" fill="white"/>
<path d="M193.672 48.754C192.467 48.754 191.591 48.1662 191.591 47.1556C191.591 46.1656 192.292 45.6397 193.837 45.5366L196.577 45.3613V46.2997C196.577 47.6918 195.341 48.754 193.672 48.754ZM193.106 50.6205C194.579 50.6205 195.805 49.9811 196.474 48.8571H196.649V50.4349H198.782V42.7626C198.782 40.3908 197.196 38.9884 194.383 38.9884C191.838 38.9884 190.025 40.2258 189.799 42.1542H191.941C192.189 41.3602 193.044 40.9064 194.28 40.9064C195.794 40.9064 196.577 41.5767 196.577 42.7626V43.732L193.538 43.9073C190.87 44.0723 189.366 45.2375 189.366 47.2587C189.366 49.3108 190.942 50.6205 193.106 50.6205Z" fill="white"/>
<path d="M206.298 50.6205C207.844 50.6205 209.152 49.8883 209.822 48.6612H209.997V50.4349H212.119V34.8223H209.904V40.9889H209.739C209.132 39.7515 207.833 39.0193 206.298 39.0193C203.465 39.0193 201.642 41.2674 201.642 44.8147C201.642 48.3724 203.445 50.6205 206.298 50.6205ZM206.927 41.0096C208.781 41.0096 209.945 42.4842 209.945 44.825C209.945 47.1762 208.792 48.6302 206.927 48.6302C205.052 48.6302 203.929 47.1968 203.929 44.8147C203.929 42.4533 205.062 41.0096 206.927 41.0096Z" fill="white"/>
<path d="M226.482 50.6514C229.758 50.6514 231.767 48.4549 231.767 44.8147C231.767 41.1952 229.748 38.9884 226.482 38.9884C223.206 38.9884 221.187 41.1952 221.187 44.8147C221.187 48.4549 223.196 50.6514 226.482 50.6514ZM226.482 48.6818C224.556 48.6818 223.474 47.269 223.474 44.8147C223.474 42.3811 224.556 40.958 226.482 40.958C228.398 40.958 229.49 42.3811 229.49 44.8147C229.49 47.2587 228.398 48.6818 226.482 48.6818Z" fill="white"/>
<path d="M234.699 50.4349H236.914V43.866C236.914 42.113 237.955 41.0199 239.593 41.0199C241.231 41.0199 242.014 41.917 242.014 43.7216V50.4349H244.229V43.1648C244.229 40.4939 242.848 38.9884 240.345 38.9884C238.655 38.9884 237.543 39.7412 236.997 40.9889H236.832V39.2049H234.699V50.4349Z" fill="white"/>
<path d="M254.43 36.4103V39.2565H252.648V41.123H254.43V47.465C254.43 49.6305 255.408 50.4967 257.871 50.4967C258.303 50.4967 258.715 50.4452 259.076 50.3833V48.5374C258.767 48.5684 258.571 48.589 258.231 48.589C257.129 48.589 256.645 48.0734 256.645 46.8978V41.123H259.076V39.2565H256.645V36.4103H254.43Z" fill="white"/>
<path d="M262.049 50.4349H264.264V43.8763C264.264 42.1748 265.274 41.0302 267.087 41.0302C268.653 41.0302 269.487 41.9376 269.487 43.732V50.4349H271.702V43.1854C271.702 40.5146 270.229 38.9987 267.839 38.9987C266.149 38.9987 264.965 39.7515 264.419 41.0096H264.244V34.8223H262.049V50.4349Z" fill="white"/>
<path d="M279.693 40.8755C281.331 40.8755 282.402 42.0201 282.454 43.7835H276.787C276.911 42.0305 278.055 40.8755 279.693 40.8755ZM282.443 47.4031C282.031 48.2796 281.114 48.7643 279.775 48.7643C278.003 48.7643 276.859 47.5165 276.787 45.5469V45.4232H284.71V44.6497C284.71 41.123 282.824 38.9884 279.703 38.9884C276.54 38.9884 274.531 41.2674 274.531 44.856C274.531 48.4446 276.499 50.6514 279.713 50.6514C282.278 50.6514 284.071 49.4139 284.576 47.4031H282.443Z" fill="white"/>
<path d="M113.062 35.5544V50.4349H118.43C122.86 50.4349 125.425 47.7021 125.425 42.9482C125.425 38.2665 122.839 35.5544 118.43 35.5544H113.062ZM115.37 37.6581H118.172C121.253 37.6581 123.076 39.6174 123.076 42.9792C123.076 46.3925 121.284 48.3312 118.172 48.3312H115.37V37.6581Z" stroke="#6B86E7"/>
<path d="M133.281 50.6514C136.557 50.6514 138.566 48.4549 138.566 44.8147C138.566 41.1952 136.547 38.9884 133.281 38.9884C130.005 38.9884 127.986 41.1952 127.986 44.8147C127.986 48.4549 129.995 50.6514 133.281 50.6514ZM133.281 48.6818C131.355 48.6818 130.273 47.269 130.273 44.8147C130.273 42.3811 131.355 40.958 133.281 40.958C135.198 40.958 136.29 42.3811 136.29 44.8147C136.29 47.2587 135.198 48.6818 133.281 48.6818Z" stroke="#6B86E7"/>
<path d="M155.674 39.2049H153.459L151.46 47.7743H151.285L148.978 39.2049H146.855L144.548 47.7743H144.383L142.374 39.2049H140.128L143.219 50.4349H145.496L147.803 42.1645H147.978L150.296 50.4349H152.594L155.674 39.2049Z" stroke="#6B86E7"/>
<path d="M158.225 50.4349H160.44V43.866C160.44 42.113 161.48 41.0199 163.118 41.0199C164.756 41.0199 165.539 41.917 165.539 43.7216V50.4349H167.754V43.1648C167.754 40.4939 166.374 38.9884 163.87 38.9884C162.181 38.9884 161.068 39.7412 160.522 40.9889H160.357V39.2049H158.225V50.4349Z" stroke="#6B86E7"/>
<path d="M171.243 50.4349H173.457V34.8223H171.243V50.4349Z" stroke="#6B86E7"/>
<path d="M181.788 50.6514C185.064 50.6514 187.073 48.4549 187.073 44.8147C187.073 41.1952 185.053 38.9884 181.788 38.9884C178.512 38.9884 176.492 41.1952 176.492 44.8147C176.492 48.4549 178.501 50.6514 181.788 50.6514ZM181.788 48.6818C179.861 48.6818 178.78 47.269 178.78 44.8147C178.78 42.3811 179.861 40.958 181.788 40.958C183.704 40.958 184.796 42.3811 184.796 44.8147C184.796 47.2587 183.704 48.6818 181.788 48.6818Z" stroke="#6B86E7"/>
<path d="M193.672 48.754C192.467 48.754 191.591 48.1662 191.591 47.1556C191.591 46.1656 192.292 45.6397 193.837 45.5366L196.577 45.3613V46.2997C196.577 47.6918 195.341 48.754 193.672 48.754ZM193.106 50.6205C194.579 50.6205 195.805 49.9811 196.474 48.8571H196.649V50.4349H198.782V42.7626C198.782 40.3908 197.196 38.9884 194.383 38.9884C191.838 38.9884 190.025 40.2258 189.799 42.1542H191.941C192.189 41.3602 193.044 40.9064 194.28 40.9064C195.794 40.9064 196.577 41.5767 196.577 42.7626V43.732L193.538 43.9073C190.87 44.0723 189.366 45.2375 189.366 47.2587C189.366 49.3108 190.942 50.6205 193.106 50.6205Z" stroke="#6B86E7"/>
<path d="M206.298 50.6205C207.844 50.6205 209.152 49.8883 209.822 48.6612H209.997V50.4349H212.119V34.8223H209.904V40.9889H209.739C209.132 39.7515 207.833 39.0193 206.298 39.0193C203.465 39.0193 201.642 41.2674 201.642 44.8147C201.642 48.3724 203.445 50.6205 206.298 50.6205ZM206.927 41.0096C208.781 41.0096 209.945 42.4842 209.945 44.825C209.945 47.1762 208.792 48.6302 206.927 48.6302C205.052 48.6302 203.929 47.1968 203.929 44.8147C203.929 42.4533 205.062 41.0096 206.927 41.0096Z" stroke="#6B86E7"/>
<path d="M226.482 50.6514C229.758 50.6514 231.767 48.4549 231.767 44.8147C231.767 41.1952 229.748 38.9884 226.482 38.9884C223.206 38.9884 221.187 41.1952 221.187 44.8147C221.187 48.4549 223.196 50.6514 226.482 50.6514ZM226.482 48.6818C224.556 48.6818 223.474 47.269 223.474 44.8147C223.474 42.3811 224.556 40.958 226.482 40.958C228.398 40.958 229.49 42.3811 229.49 44.8147C229.49 47.2587 228.398 48.6818 226.482 48.6818Z" stroke="#6B86E7"/>
<path d="M234.699 50.4349H236.914V43.866C236.914 42.113 237.955 41.0199 239.593 41.0199C241.231 41.0199 242.014 41.917 242.014 43.7216V50.4349H244.229V43.1648C244.229 40.4939 242.848 38.9884 240.345 38.9884C238.655 38.9884 237.543 39.7412 236.997 40.9889H236.832V39.2049H234.699V50.4349Z" stroke="#6B86E7"/>
<path d="M254.43 36.4103V39.2565H252.648V41.123H254.43V47.465C254.43 49.6305 255.408 50.4967 257.871 50.4967C258.303 50.4967 258.715 50.4452 259.076 50.3833V48.5374C258.767 48.5684 258.571 48.589 258.231 48.589C257.129 48.589 256.645 48.0734 256.645 46.8978V41.123H259.076V39.2565H256.645V36.4103H254.43Z" stroke="#6B86E7"/>
<path d="M262.049 50.4349H264.264V43.8763C264.264 42.1748 265.274 41.0302 267.087 41.0302C268.653 41.0302 269.487 41.9376 269.487 43.732V50.4349H271.702V43.1854C271.702 40.5146 270.229 38.9987 267.839 38.9987C266.149 38.9987 264.965 39.7515 264.419 41.0096H264.244V34.8223H262.049V50.4349Z" stroke="#6B86E7"/>
<path d="M279.693 40.8755C281.331 40.8755 282.402 42.0201 282.454 43.7835H276.787C276.911 42.0305 278.055 40.8755 279.693 40.8755ZM282.443 47.4031C282.031 48.2796 281.114 48.7643 279.775 48.7643C278.003 48.7643 276.859 47.5165 276.787 45.5469V45.4232H284.71V44.6497C284.71 41.123 282.824 38.9884 279.703 38.9884C276.54 38.9884 274.531 41.2674 274.531 44.856C274.531 48.4446 276.499 50.6514 279.713 50.6514C282.278 50.6514 284.071 49.4139 284.576 47.4031H282.443Z" stroke="#6B86E7"/>
</svg>
