<svg width="979" height="463" viewBox="0 0 979 463" fill="none" xmlns="http://www.w3.org/2000/svg">
<rect x="208.08" y="269.715" width="357.278" height="93.1863" rx="46.5931" transform="rotate(16.8263 208.08 269.715)" fill="#A1B5FF"/>
<path d="M242.478 356.821L245.8 345.834L247.798 346.438C249.369 345.569 250.874 344.316 252.314 342.681C255.78 338.787 258.47 333.678 260.383 327.352L263.555 316.865L285.028 323.359L275.514 354.82L279.759 356.104L276.436 367.09L272.691 365.958L274.956 358.467L248.489 350.463L246.223 357.953L242.478 356.821ZM251.793 347.647L271.768 353.688L280.226 325.722L266.243 321.493L264.129 328.485C262.196 334.877 259.566 339.968 256.239 343.759C254.79 345.428 253.308 346.724 251.793 347.647ZM301.213 359.049L302.781 361.976C301.886 362.65 300.786 363.226 299.479 363.703C296.645 364.663 293.913 364.745 291.283 363.95C287.987 362.953 285.525 360.882 283.896 357.737C282.3 354.602 282.026 351.303 283.073 347.84C284.12 344.378 286.177 341.784 289.242 340.058C292.307 338.333 295.422 337.948 298.584 338.905C301.88 339.902 304.268 341.859 305.747 344.777C307.26 347.706 307.493 350.901 306.446 354.364C306.395 354.53 306.214 354.948 305.903 355.617L305.652 356.086L286.191 350.146C285.67 352.35 285.983 354.498 287.131 356.589C288.323 358.658 290.034 360.029 292.264 360.704C294.295 361.318 296.411 361.231 298.611 360.443C299.689 360.005 300.556 359.541 301.213 359.049ZM287.097 347.15L303.327 352.058C303.716 349.813 303.372 347.765 302.297 345.914C301.265 344.039 299.7 342.785 297.603 342.151C295.505 341.516 293.453 341.695 291.445 342.687C289.437 343.678 287.988 345.166 287.097 347.15ZM305.9 367.825L313.15 343.855L333.874 350.122L326.625 374.093L323.129 373.035L329.382 352.361L315.648 348.208L309.396 368.882L305.9 367.825ZM328.457 386.093L338.878 351.635L342.373 352.692L341.316 356.188C342.114 355.594 342.998 355.134 343.968 354.81C346.168 354.022 348.434 353.98 350.764 354.685C354.06 355.682 356.483 357.704 358.032 360.753C359.581 363.801 359.812 367.123 358.724 370.719C357.637 374.314 355.604 376.952 352.625 378.631C349.646 380.31 346.509 380.651 343.213 379.654C340.883 378.949 339.02 377.659 337.625 375.784C336.997 374.976 336.516 374.104 336.181 373.167L331.953 387.15L328.457 386.093ZM344.195 376.408C346.492 377.103 348.701 376.826 350.823 375.578C352.944 374.33 354.413 372.358 355.228 369.661C356.044 366.965 355.915 364.509 354.84 362.295C353.766 360.08 352.08 358.626 349.783 357.931C347.619 357.277 345.432 357.596 343.224 358.891C341.016 360.185 339.524 362.114 338.749 364.678C337.974 367.241 338.146 369.674 339.267 371.975C340.388 374.276 342.031 375.754 344.195 376.408ZM378.349 382.377L379.916 385.303C379.022 385.978 377.921 386.553 376.614 387.03C373.78 387.99 371.048 388.072 368.418 387.277C365.122 386.28 362.66 384.209 361.031 381.064C359.436 377.929 359.162 374.63 360.209 371.168C361.256 367.705 363.312 365.111 366.378 363.386C369.443 361.66 372.557 361.275 375.72 362.232C379.016 363.229 381.403 365.186 382.883 368.105C384.395 371.033 384.628 374.228 383.581 377.691C383.531 377.857 383.35 378.275 383.039 378.944L382.788 379.413L363.327 373.473C362.806 375.677 363.119 377.825 364.267 379.917C365.458 381.985 367.169 383.356 369.4 384.031C371.431 384.645 373.547 384.558 375.747 383.77C376.824 383.333 377.691 382.868 378.349 382.377ZM364.233 370.477L380.463 375.385C380.851 373.141 380.507 371.093 379.432 369.241C378.4 367.367 376.836 366.112 374.738 365.478C372.641 364.844 370.588 365.022 368.58 366.014C366.573 367.006 365.124 368.493 364.233 370.477ZM402.803 389.772L404.62 392.774C403.703 393.405 402.569 393.971 401.218 394.471C398.385 395.431 395.686 395.523 393.122 394.748C389.826 393.751 387.364 391.68 385.735 388.535C384.14 385.4 383.866 382.101 384.913 378.639C385.96 375.176 388.016 372.582 391.081 370.857C394.18 369.141 397.378 368.782 400.674 369.778C403.27 370.564 405.426 372.088 407.14 374.35C407.837 375.288 408.45 376.327 408.977 377.468L405.725 379.209C405.414 378.316 404.999 377.464 404.481 376.653C403.286 374.838 401.689 373.629 399.692 373.024C397.395 372.33 395.125 372.625 392.884 373.909C390.685 375.17 389.194 377.099 388.408 379.696C387.623 382.292 387.791 384.741 388.912 387.043C390.076 389.321 391.807 390.807 394.104 391.502C396.002 392.076 398.051 391.969 400.251 391.181C401.208 390.78 402.059 390.31 402.803 389.772ZM425.02 396.491L426.837 399.493C425.92 400.124 424.786 400.69 423.435 401.19C420.601 402.149 417.903 402.242 415.339 401.466C412.043 400.47 409.581 398.399 407.952 395.254C406.357 392.118 406.082 388.82 407.129 385.357C408.177 381.895 410.233 379.301 413.298 377.575C416.397 375.86 419.594 375.5 422.89 376.497C425.487 377.283 427.643 378.806 429.357 381.069C430.054 382.007 430.666 383.046 431.194 384.186L427.942 385.928C427.63 385.035 427.216 384.183 426.698 383.372C425.503 381.557 423.906 380.347 421.909 379.743C419.611 379.049 417.342 379.343 415.1 380.628C412.902 381.889 411.41 383.818 410.625 386.414C409.84 389.011 410.008 391.46 411.129 393.761C412.293 396.039 414.024 397.526 416.321 398.22C418.218 398.794 420.268 398.687 422.468 397.899C423.425 397.498 424.276 397.029 425.02 396.491ZM427.957 404.737L435.206 380.767L438.702 381.824L433.265 399.802L453.184 386.204L456.181 387.11L448.931 411.08L445.436 410.023L450.873 392.045L430.954 405.644L427.957 404.737ZM451.932 411.988L460.068 404.91C459.249 404.372 458.553 403.67 457.979 402.806C456.737 400.905 456.499 398.689 457.264 396.158C457.958 393.861 459.331 392.205 461.382 391.19C463.477 390.152 465.823 390.026 468.419 390.811L478.657 393.907L471.408 417.878L467.912 416.82L470.328 408.83L463.337 406.716L455.927 413.196L451.932 411.988ZM464.568 403.545L471.31 405.584L474.179 396.096L467.438 394.057C465.84 393.574 464.427 393.619 463.2 394.193C462.006 394.776 461.192 395.784 460.759 397.216C460.327 398.647 460.445 399.937 461.116 401.084C461.819 402.242 462.97 403.062 464.568 403.545Z" fill="white"/>
<rect x="436.07" y="248.518" width="277.278" height="93.1863" rx="46.5931" transform="rotate(2.43241 436.07 248.518)" fill="#B9A1FF"/>
<path d="M496.845 316.752L498.395 280.264L502.305 280.43L501.43 301.02L521.07 281.227L526.022 281.438L511.566 295.967L525.775 317.981L521.083 317.782L508.838 298.724L501.209 306.232L500.755 316.918L496.845 316.752ZM526.869 328.993L528.397 293.027L532.046 293.182L531.891 296.831C532.516 296.057 533.258 295.392 534.117 294.836C536.052 293.526 538.236 292.923 540.669 293.026C544.109 293.172 546.958 294.529 549.217 297.097C551.475 299.664 552.524 302.825 552.365 306.578C552.205 310.331 550.892 313.391 548.424 315.758C545.956 318.124 543.002 319.235 539.562 319.089C537.129 318.985 535.004 318.199 533.187 316.729C532.378 316.103 531.695 315.378 531.138 314.553L530.518 329.148L526.869 328.993ZM539.706 315.701C542.103 315.802 544.175 314.985 545.919 313.249C547.664 311.513 548.596 309.237 548.716 306.423C548.835 303.608 548.1 301.262 546.508 299.384C544.917 297.506 542.923 296.516 540.525 296.414C538.266 296.318 536.228 297.172 534.411 298.974C532.594 300.777 531.628 303.016 531.515 305.692C531.401 308.368 532.173 310.681 533.831 312.631C535.489 314.581 537.447 315.605 539.706 315.701ZM555.207 319.231L556.27 294.211L559.919 294.366L559.122 313.131L575.035 295.008L578.163 295.141L577.1 320.161L573.451 320.006L574.248 301.241L558.335 319.364L555.207 319.231ZM579.615 316.351L582.061 314.105C582.587 314.824 583.188 315.424 583.864 315.905C585.415 317.085 587.112 317.714 588.954 317.793C590.935 317.877 592.445 317.558 593.485 316.836C594.525 316.114 595.072 315.128 595.125 313.877C595.178 312.626 594.717 311.597 593.742 310.79C592.767 309.982 591.289 309.537 589.308 309.452L586.441 309.331L586.585 305.943L589.452 306.064C590.946 306.128 592.161 305.796 593.097 305.07C594.033 304.344 594.524 303.443 594.57 302.365C594.616 301.288 594.236 300.402 593.43 299.706C592.625 298.975 591.406 298.576 589.773 298.506C588.07 298.434 586.521 298.855 585.124 299.771C584.445 300.195 583.869 300.64 583.396 301.107L580.901 298.39C581.446 297.857 582.236 297.281 583.272 296.663C585.408 295.536 587.623 295.021 589.917 295.118C592.419 295.224 594.439 296.024 595.977 297.516C597.551 298.976 598.298 300.644 598.219 302.52C598.137 304.432 597.414 305.88 596.05 306.867C595.438 307.328 594.781 307.648 594.077 307.827C594.937 308.073 595.739 308.455 596.482 308.974C598.103 310.157 598.867 311.843 598.774 314.032C598.685 316.117 597.758 317.871 595.992 319.293C594.262 320.681 591.868 321.311 588.81 321.181C586.273 321.073 583.958 320.243 581.866 318.692C580.99 317.994 580.24 317.213 579.615 316.351ZM602.146 321.225L603.209 296.205L606.858 296.36L606.061 315.125L621.974 297.002L625.102 297.135L624.039 322.155L620.39 322L621.187 303.235L605.274 321.358L602.146 321.225ZM648.059 316.126L650.565 318.582C649.834 319.421 648.876 320.251 647.692 321.071C645.186 322.705 642.595 323.465 639.919 323.352C636.479 323.206 633.579 321.812 631.219 319.17C628.895 316.53 627.809 313.403 627.963 309.789C628.116 306.175 629.463 303.151 632.003 300.718C634.578 298.286 637.586 297.143 641.026 297.289C643.737 297.404 646.203 298.345 648.426 300.11C649.335 300.845 650.186 301.699 650.98 302.673L648.263 305.168C647.74 304.38 647.126 303.658 646.423 303.001C644.814 301.541 642.967 300.766 640.882 300.677C638.484 300.575 636.36 301.425 634.508 303.226C632.692 304.994 631.726 307.233 631.611 309.944C631.496 312.655 632.267 314.985 633.925 316.935C635.619 318.852 637.665 319.862 640.063 319.964C642.044 320.048 644.002 319.435 645.937 318.124C646.765 317.498 647.472 316.832 648.059 316.126Z" fill="white"/>
<rect y="356.34" width="220.278" height="93.1863" rx="46.5931" fill="#FFB4C2"/>
<path d="M63.6168 421.934V385.413H91.7897V421.934H87.8768V389.065H67.5297V421.934H63.6168ZM99.6156 421.934V385.413H113.441C116.815 385.413 119.615 386.509 121.841 388.7C124.067 390.891 125.18 393.621 125.18 396.891C125.18 400.16 124.067 402.891 121.841 405.082C119.615 407.273 116.815 408.369 113.441 408.369H103.528V421.934H99.6156ZM103.528 404.717H113.441C115.806 404.717 117.702 404.004 119.128 402.578C120.554 401.152 121.267 399.256 121.267 396.891C121.267 394.526 120.554 392.63 119.128 391.204C117.702 389.778 115.806 389.065 113.441 389.065H103.528V404.717ZM122.59 421.934V418.021C122.903 418.16 123.216 418.247 123.529 418.282C124.224 418.455 124.868 418.542 125.459 418.542C126.537 418.542 127.442 418.282 128.172 417.76C128.937 417.238 129.65 416.229 130.311 414.734C130.972 413.238 131.459 410.977 131.772 407.951C132.085 404.891 132.242 401.03 132.242 396.369V385.413H155.719V421.934H151.806V389.065H136.154V396.369C136.154 401.76 135.928 406.23 135.476 409.777C135.024 413.29 134.328 415.951 133.389 417.76C132.45 419.568 131.407 420.803 130.259 421.464C129.111 422.125 127.685 422.455 125.981 422.455C125.146 422.455 124.346 422.368 123.581 422.194C123.233 422.16 122.903 422.073 122.59 421.934Z" fill="white"/>
<rect x="225.002" y="202.635" width="269.278" height="93.1863" rx="46.5931" transform="rotate(-11.9004 225.002 202.635)" fill="#96BCFF"/>
<path d="M315.288 251.709L314.266 246.859C309.132 247.799 304.743 247.213 301.099 245.102C297.455 242.99 295.206 239.91 294.353 235.86C293.499 231.81 294.314 228.083 296.796 224.681C299.278 221.279 303.057 218.972 308.133 217.76L307.326 213.931L311.155 213.124L311.962 216.953C317.096 216.013 321.485 216.599 325.129 218.71C328.773 220.821 331.022 223.902 331.875 227.952C332.729 232.002 331.914 235.728 329.432 239.131C326.95 242.533 323.171 244.84 318.095 246.052L319.117 250.902L315.288 251.709ZM313.513 243.285L308.886 221.333C304.797 222.337 301.824 224.084 299.967 226.572C298.11 229.061 297.515 231.888 298.182 235.053C298.849 238.218 300.534 240.564 303.237 242.092C305.941 243.619 309.366 244.017 313.513 243.285ZM312.715 220.527L317.341 242.478C321.431 241.474 324.404 239.728 326.261 237.24C328.118 234.751 328.713 231.924 328.046 228.759C327.379 225.594 325.694 223.248 322.991 221.72C320.287 220.193 316.862 219.795 312.715 220.527ZM358.449 238.241C356.549 241.201 353.863 243.046 350.391 243.778C346.92 244.509 343.701 243.908 340.734 241.974C337.794 239.999 335.947 237.224 335.194 233.651C334.441 230.077 335.015 226.811 336.915 223.851C338.841 220.85 341.541 218.984 345.012 218.252C348.484 217.521 351.689 218.143 354.629 220.118C357.596 222.052 359.456 224.806 360.209 228.379C360.962 231.953 360.375 235.24 358.449 238.241ZM342.781 239.037C344.938 240.502 347.242 240.976 349.692 240.459C352.142 239.943 354.045 238.6 355.401 236.43C356.784 234.22 357.195 231.787 356.636 229.132C356.076 226.478 354.721 224.435 352.572 223.004C350.449 221.532 348.162 221.054 345.711 221.571C343.261 222.087 341.344 223.451 339.962 225.661C338.606 227.831 338.208 230.243 338.768 232.898C339.32 235.518 340.658 237.565 342.781 239.037ZM378.17 198.468L380.548 200.9C380.185 201.367 379.596 201.864 378.783 202.391C377.022 203.651 374.611 204.941 371.548 206.262C368.947 207.414 367.041 209.167 365.831 211.519C364.613 213.837 364.299 216.729 364.887 220.195C365.272 219.155 365.818 218.204 366.525 217.344C368.087 215.309 370.093 214.033 372.543 213.517C375.743 212.842 378.75 213.453 381.567 215.347C384.383 217.242 386.15 219.891 386.867 223.294C387.592 226.732 387.031 229.889 385.184 232.766C383.365 235.603 380.788 237.372 377.452 238.075C373.845 238.835 370.61 238.077 367.749 235.801C364.888 233.525 362.926 229.868 361.865 224.831C360.617 218.909 360.79 214.163 362.383 210.593C363.977 207.022 366.628 204.508 370.338 203.051C372.79 202.037 374.826 200.986 376.445 199.898C377.305 199.255 377.88 198.778 378.17 198.468ZM370.242 233.463C372.234 234.82 374.405 235.251 376.753 234.757C379.101 234.262 380.913 232.991 382.188 230.945C383.456 228.865 383.824 226.566 383.294 224.048C382.763 221.529 381.501 219.591 379.509 218.234C377.51 216.842 375.336 216.394 372.988 216.889C370.639 217.384 368.831 218.671 367.563 220.751C366.288 222.797 365.916 225.079 366.447 227.598C366.978 230.116 368.243 232.071 370.242 233.463ZM392.913 234.283L387.749 209.779L391.323 209.026L395.196 227.404L406.127 205.906L409.191 205.26L414.355 229.765L410.781 230.518L406.908 212.14L395.976 233.638L392.913 234.283ZM419.464 228.688L414.3 204.184L417.873 203.431L421.746 221.809L432.678 200.311L435.741 199.665L440.905 224.17L437.331 224.923L433.458 206.544L422.527 228.043L419.464 228.688Z" fill="white"/>
<rect x="614.898" width="387.278" height="93.1863" rx="46.5931" transform="rotate(19.949 614.898 0)" fill="#FFB6B6"/>
<path d="M652.319 83.363L664.779 49.0338L668.457 50.3688L662.939 65.5718L682.065 72.5139L687.583 57.311L691.261 58.646L678.801 92.9752L675.123 91.6401L680.819 75.9468L661.693 69.0047L655.997 84.698L652.319 83.363ZM699.154 100.362L700.311 97.1746C699.571 97.6832 698.724 98.0789 697.771 98.3618C695.599 98.9425 693.467 98.8531 691.374 98.0937C688.987 97.2274 687.242 95.8169 686.139 93.8623C685.08 91.8868 684.876 90 685.529 88.2018C686.977 84.2131 690.126 82.6734 694.976 83.5828L704.583 85.4046C705.212 83.6718 705.166 82.0642 704.446 80.5818C703.771 79.0786 702.566 78.0125 700.834 77.3835C699.134 76.7665 697.307 76.7512 695.356 77.3378C694.411 77.6979 693.615 78.0564 692.967 78.4134L691.561 75.4055C692.479 74.8136 693.514 74.3569 694.667 74.0353C697.195 73.2879 699.637 73.3414 701.991 74.1958C704.672 75.1689 706.58 76.8423 707.717 79.2159C708.853 81.5895 708.953 84.0677 708.016 86.6506L702.586 101.608L699.154 100.362ZM702.981 89.8183L703.515 88.3471L694.889 86.8813C691.756 86.3364 689.781 87.1919 688.962 89.4478C688.582 90.494 688.687 91.531 689.276 92.5589C689.909 93.5658 690.994 94.3482 692.531 94.906C694.787 95.7248 696.879 95.67 698.807 94.7418C700.735 93.8135 702.126 92.1723 702.981 89.8183ZM703.73 113.679L716.012 79.84L719.445 81.086L718.199 84.5189C719.027 83.9687 719.935 83.5581 720.921 83.2871C723.162 82.6201 725.426 82.702 727.715 83.5326C730.951 84.7075 733.26 86.859 734.641 89.9873C736.021 93.1155 736.071 96.4451 734.789 99.9761C733.508 103.507 731.334 106.03 728.268 107.544C725.202 109.059 722.051 109.228 718.814 108.053C716.526 107.223 714.736 105.833 713.445 103.885C712.862 103.044 712.429 102.147 712.147 101.193L707.162 114.925L703.73 113.679ZM719.971 104.866C722.227 105.685 724.449 105.529 726.635 104.398C728.821 103.268 730.395 101.378 731.356 98.7301C732.318 96.0819 732.322 93.6229 731.37 91.3532C730.418 89.0834 728.813 87.5392 726.558 86.7204C724.432 85.949 722.232 86.1494 719.957 87.3216C717.681 88.4937 716.086 90.3385 715.173 92.856C714.259 95.3735 714.299 97.8117 715.293 100.17C716.287 102.529 717.846 104.094 719.971 104.866ZM733.692 112.898L742.236 89.3583L745.669 90.6043L738.281 110.957L751.278 115.674L758.665 95.3214L762.098 96.5674L754.71 116.92L758.389 118.255L755.096 127.327L751.663 126.081L753.799 120.196L733.692 112.898ZM759.676 122.33L768.22 98.7897L771.653 100.036L765.245 117.691L785.875 105.198L788.818 106.266L780.273 129.806L776.841 128.56L783.249 110.905L762.618 123.398L759.676 122.33ZM804.994 131.286L806.645 134.383C805.695 134.963 804.532 135.466 803.156 135.891C800.274 136.695 797.575 136.64 795.057 135.727C791.82 134.552 789.474 132.35 788.019 129.121C786.597 125.903 786.503 122.594 787.737 119.194C788.971 115.794 791.166 113.316 794.321 111.76C797.508 110.216 800.72 110.031 803.957 111.206C806.507 112.131 808.577 113.771 810.165 116.123C810.81 117.097 811.365 118.168 811.829 119.336L808.487 120.898C808.225 119.989 807.858 119.115 807.385 118.278C806.29 116.4 804.762 115.106 802.8 114.394C800.544 113.575 798.262 113.746 795.954 114.906C793.69 116.045 792.096 117.89 791.17 120.44C790.244 122.99 790.279 125.445 791.272 127.804C792.311 130.142 793.958 131.72 796.214 132.539C798.078 133.215 800.13 133.22 802.37 132.553C803.347 132.205 804.222 131.782 804.994 131.286ZM826.812 139.205L828.463 142.302C827.513 142.882 826.35 143.385 824.974 143.81C822.092 144.614 819.392 144.56 816.875 143.646C813.638 142.471 811.292 140.269 809.837 137.04C808.415 133.822 808.321 130.513 809.555 127.113C810.789 123.713 812.984 121.235 816.138 119.679C819.326 118.135 822.538 117.95 825.775 119.125C828.325 120.051 830.394 121.69 831.983 124.042C832.628 125.016 833.183 126.087 833.647 127.255L830.305 128.817C830.043 127.908 829.675 127.034 829.202 126.197C828.108 124.319 826.58 123.025 824.618 122.313C822.362 121.494 820.08 121.665 817.772 122.825C815.508 123.964 813.913 125.809 812.988 128.359C812.062 130.909 812.096 133.364 813.09 135.723C814.129 138.061 815.776 139.639 818.032 140.458C819.895 141.134 821.947 141.139 824.187 140.472C825.165 140.124 826.04 139.701 826.812 139.205ZM829.296 147.599L837.84 124.059L841.273 125.305L834.865 142.96L855.495 130.467L858.438 131.535L849.894 155.075L846.461 153.829L852.869 136.174L832.239 148.667L829.296 147.599ZM853.439 152.2L856.447 150.794C856.733 151.637 857.126 152.391 857.625 153.053C858.749 154.645 860.178 155.756 861.911 156.384C863.774 157.061 865.311 157.212 866.52 156.836C867.729 156.461 868.547 155.685 868.975 154.508C869.402 153.331 869.272 152.211 868.585 151.148C867.898 150.084 866.622 149.214 864.759 148.538L862.062 147.559L863.219 144.371L865.916 145.35C867.322 145.86 868.58 145.91 869.691 145.499C870.802 145.089 871.542 144.377 871.91 143.363C872.278 142.349 872.182 141.39 871.623 140.484C871.075 139.545 870.034 138.797 868.497 138.239C866.895 137.658 865.29 137.593 863.683 138.046C862.907 138.245 862.224 138.497 861.633 138.8L860.071 135.458C860.751 135.113 861.678 134.802 862.852 134.525C865.229 134.093 867.496 134.268 869.654 135.051C872.008 135.906 873.694 137.276 874.711 139.162C875.773 141.028 875.984 142.844 875.343 144.609C874.69 146.407 873.565 147.571 871.966 148.101C871.244 148.357 870.521 148.465 869.796 148.423C870.542 148.916 871.191 149.522 871.745 150.241C872.934 151.857 873.155 153.694 872.407 155.754C871.695 157.716 870.283 159.109 868.171 159.933C866.103 160.737 863.631 160.616 860.754 159.572C858.367 158.706 856.409 157.218 854.881 155.109C854.256 154.18 853.776 153.21 853.439 152.2ZM873.458 163.628L882.003 140.088L884.7 141.067L889.746 156.22L903.336 147.832L906.033 148.811L897.489 172.351L894.056 171.105L900.375 153.695L887.877 161.369L883.21 147.465L876.891 164.875L873.458 163.628Z" fill="white"/>
<rect x="712.072" y="275.484" width="247.278" height="93.1863" rx="46.5931" transform="rotate(-17.9023 712.072 275.484)" fill="#82E7FF"/>
<path d="M792.772 318.346L781.546 283.594L808.355 274.934L819.581 309.686L815.858 310.889L805.754 279.612L786.392 285.866L796.496 317.144L792.772 318.346ZM833.73 305.115L823.626 273.838L812.704 277.367L811.582 273.891L837.149 265.632L838.272 269.107L827.35 272.636L837.454 303.913L833.73 305.115ZM875.284 281.823L878.488 283.255C877.8 285.086 876.966 286.689 875.985 288.066C873.512 291.497 870.322 293.843 866.416 295.105C861.452 296.709 856.671 296.334 852.073 293.981C847.475 291.629 844.374 287.97 842.77 283.006C841.167 278.041 841.541 273.26 843.894 268.662C846.246 264.064 849.905 260.963 854.869 259.36C858.742 258.109 862.674 258.173 866.664 259.552C868.397 260.162 869.957 260.974 871.344 261.988L869.583 265.024C868.382 264.132 867.101 263.45 865.742 262.975C862.618 261.791 859.368 261.744 855.992 262.835C852.02 264.118 849.11 266.593 847.261 270.261C845.434 273.884 845.179 277.732 846.494 281.803C847.809 285.874 850.272 288.861 853.885 290.765C857.519 292.624 861.322 292.913 865.294 291.63C868.703 290.528 871.361 288.573 873.268 285.764C874.115 284.54 874.787 283.226 875.284 281.823ZM884.873 288.594L873.647 253.842L886.803 249.592C890.014 248.555 893.015 248.737 895.807 250.138C898.599 251.539 900.497 253.795 901.502 256.906C902.507 260.017 902.287 262.957 900.843 265.727C899.398 268.496 897.07 270.399 893.86 271.436L884.427 274.483L888.597 287.391L884.873 288.594ZM883.304 271.008L892.737 267.961C894.988 267.234 896.572 265.973 897.491 264.177C898.41 262.382 898.506 260.359 897.779 258.109C897.051 255.858 895.79 254.273 893.995 253.355C892.2 252.436 890.177 252.34 887.926 253.067L878.493 256.114L883.304 271.008Z" fill="white"/>
<rect x="531.117" y="162.762" width="223.278" height="93.1863" rx="46.5931" transform="rotate(-6.92775 531.117 162.762)" fill="#FFBC8C"/>
<path d="M604.692 214.905C600.626 211.72 598.278 207.538 597.649 202.359C597.019 197.18 598.297 192.557 601.482 188.491C604.667 184.426 608.849 182.078 614.028 181.449C619.207 180.819 623.83 182.097 627.896 185.282C631.962 188.467 634.309 192.649 634.938 197.828C635.568 203.007 634.29 207.63 631.105 211.696C627.92 215.761 623.738 218.109 618.559 218.738C613.38 219.368 608.757 218.09 604.692 214.905ZM607.083 212.092C610.297 214.609 613.975 215.616 618.119 215.113C622.262 214.61 625.575 212.753 628.058 209.543C630.571 206.295 631.57 202.547 631.054 198.3C630.538 194.053 628.673 190.671 625.459 188.153C622.275 185.597 618.612 184.571 614.469 185.074C610.325 185.577 606.997 187.453 604.484 190.702C602.001 193.912 601.017 197.64 601.533 201.887C602.049 206.134 603.899 209.535 607.083 212.092ZM642.571 215.295L638.166 179.041L642.05 178.569L644.536 199.027L660.695 176.304L665.615 175.706L653.716 192.393L671.315 211.803L666.654 212.369L651.472 195.556L645.165 204.206L646.455 214.823L642.571 215.295ZM674.16 211.457L669.755 175.203L683.479 173.536C686.828 173.129 689.74 173.878 692.214 175.785C694.688 177.692 696.122 180.268 696.517 183.514C696.911 186.759 696.136 189.604 694.19 192.048C692.245 194.491 689.597 195.917 686.248 196.324L676.408 197.519L678.044 210.985L674.16 211.457ZM675.967 193.894L685.808 192.698C688.156 192.413 689.951 191.477 691.195 189.889C692.439 188.301 692.918 186.334 692.632 183.986C692.347 181.638 691.411 179.842 689.823 178.598C688.235 177.355 686.268 176.876 683.92 177.161L674.079 178.357L675.967 193.894Z" fill="white"/>
<rect x="557.795" y="357.207" width="407.278" height="93.1863" rx="46.5931" fill="#FDA2FF"/>
<path d="M616.977 422.801L632.107 386.28H635.759L650.889 422.801H646.715L642.541 412.627H625.325L621.151 422.801H616.977ZM626.89 408.975H640.976L633.933 391.758L626.89 408.975ZM648.824 422.801V419.149C649.033 419.288 649.242 419.375 649.451 419.41C649.903 419.583 650.39 419.67 650.911 419.67C651.99 419.67 652.824 419.357 653.416 418.731C654.042 418.105 654.563 416.697 654.981 414.505C655.398 412.279 655.607 409.132 655.607 405.062V397.758H673.867V422.801H670.215V401.149H659.259V405.062C659.259 408.749 659.068 411.827 658.685 414.297C658.337 416.731 657.798 418.592 657.068 419.879C656.337 421.166 655.52 422.07 654.616 422.592C653.746 423.079 652.685 423.323 651.433 423.323C650.807 423.323 650.198 423.236 649.607 423.062C649.433 423.027 649.172 422.94 648.824 422.801ZM697.844 415.758L700.192 418.105C699.531 419.01 698.644 419.879 697.531 420.714C695.096 422.453 692.505 423.323 689.757 423.323C686.314 423.323 683.357 422.053 680.888 419.514C678.453 416.975 677.236 413.897 677.236 410.279C677.236 406.662 678.453 403.584 680.888 401.045C683.323 398.506 686.192 397.236 689.496 397.236C692.94 397.236 695.792 398.419 698.053 400.784C700.348 403.149 701.496 406.14 701.496 409.758C701.496 409.932 701.444 410.384 701.339 411.114L701.235 411.636L680.888 411.584C681.027 413.845 681.949 415.81 683.653 417.479C685.392 419.114 687.427 419.931 689.757 419.931C691.879 419.931 693.879 419.236 695.757 417.844C696.661 417.114 697.357 416.418 697.844 415.758ZM680.888 408.453H697.844C697.566 406.193 696.644 404.332 695.079 402.871C693.548 401.375 691.688 400.628 689.496 400.628C687.305 400.628 685.392 401.393 683.757 402.923C682.123 404.454 681.166 406.297 680.888 408.453ZM704.871 422.801V397.758H708.523V411.062L721.044 397.758H725.479L715.827 407.932L726.522 422.801H722.349L713.479 410.54L708.523 415.758V422.801H704.871ZM746.093 415.758L748.702 418.105C748.006 418.975 747.084 419.844 745.937 420.714C743.502 422.453 740.945 423.323 738.267 423.323C734.824 423.323 731.867 422.053 729.398 419.514C726.963 416.975 725.746 413.897 725.746 410.279C725.746 406.662 726.963 403.584 729.398 401.045C731.867 398.506 734.824 397.236 738.267 397.236C740.98 397.236 743.484 398.071 745.78 399.741C746.719 400.436 747.606 401.254 748.441 402.193L745.832 404.801C745.276 404.036 744.632 403.341 743.902 402.714C742.232 401.323 740.354 400.628 738.267 400.628C735.867 400.628 733.78 401.567 732.007 403.445C730.267 405.288 729.398 407.566 729.398 410.279C729.398 412.992 730.267 415.288 732.007 417.166C733.78 419.01 735.867 419.931 738.267 419.931C740.25 419.931 742.18 419.236 744.058 417.844C744.858 417.184 745.537 416.488 746.093 415.758ZM751.292 422.801V397.758H754.944V416.54L770.074 397.758H773.204V422.801H769.552V404.019L754.422 422.801H751.292ZM784.164 422.801V401.149H775.295V397.758H796.686V401.149H787.817V422.801H784.164ZM798.783 422.801V397.758H802.435V416.54L817.565 397.758H820.695V422.801H817.043V404.019L801.913 422.801H798.783ZM825.917 422.801V397.758H828.786L838.699 410.279L848.611 397.758H851.481V422.801H847.829V404.28L838.699 415.758L829.569 404.28V422.801H825.917ZM856.719 422.801V397.758H860.371V416.54L875.5 397.758H878.631V422.801H874.979V404.019L859.849 422.801H856.719ZM881.765 422.801L887.504 413.671C886.565 413.392 885.696 412.923 884.896 412.262C883.157 410.801 882.287 408.749 882.287 406.106C882.287 403.706 883.122 401.723 884.791 400.158C886.496 398.558 888.704 397.758 891.417 397.758H902.112V422.801H898.46V414.453H891.156L885.939 422.801H881.765ZM891.417 411.062H898.46V401.149H891.417C889.748 401.149 888.409 401.601 887.4 402.506C886.426 403.41 885.939 404.61 885.939 406.106C885.939 407.601 886.426 408.801 887.4 409.706C888.409 410.61 889.748 411.062 891.417 411.062Z" fill="white"/>
</svg>
