<svg width="373" height="142" viewBox="0 0 373 142" fill="none" xmlns="http://www.w3.org/2000/svg">
<rect x="0.778245" y="0.778245" width="370.516" height="139.516" rx="21.5356" fill="#6B86E7" stroke="#6B86E7" stroke-width="1.55679"/>
<g filter="url(#filter0_ii_1863_14690)">
<path d="M37.0391 38.2373L70.4951 71.9346C70.6286 72.069 70.7041 72.2509 70.7041 72.4404C70.7041 72.63 70.6287 72.8118 70.4951 72.9463L37.0381 106.643C37.0281 106.653 37.0123 106.652 37.002 106.643C36.2667 105.854 35.8105 104.612 35.8105 102.951V41.9297C35.8105 40.2705 36.2668 39.0248 37.0029 38.2363C37.0132 38.2269 37.0291 38.2273 37.0391 38.2373Z" fill="white" stroke="#6B86E7" stroke-width="0.51893"/>
<path d="M82.3633 61L82.4014 61.0137L95.8066 68.6846C97.6725 69.7527 98.5468 71.1241 98.5469 72.4424C98.5469 73.7606 97.6725 75.1327 95.8066 76.2021L82.4004 83.873C82.3504 83.899 82.2889 83.8898 82.249 83.8496L71.4287 72.9473C71.2952 72.8127 71.2207 72.63 71.2207 72.4404C71.2208 72.251 71.2953 72.069 71.4287 71.9346L82.2529 61.0342C82.2824 61.0045 82.3239 60.9924 82.3633 61Z" fill="white" stroke="#6B86E7" stroke-width="0.51893"/>
<g filter="url(#filter1_i_1863_14690)">
<path d="M82.5339 84.0942L70.9617 72.4395L36.8203 106.827C38.0805 108.174 40.1654 108.339 42.5133 106.998L82.5339 84.0942Z" fill="white"/>
</g>
<path d="M82.1113 84.0371L42.3848 106.772C40.2118 108.014 38.3534 107.892 37.1885 106.824L70.9609 72.8066L82.1113 84.0371Z" stroke="#6B86E7" stroke-width="0.51893"/>
<path d="M37.1875 38.0576C38.3525 36.9896 40.212 36.8659 42.3848 38.1094L82.1113 60.8418L70.9639 72.0742L37.1875 38.0576Z" fill="white" stroke="#6B86E7" stroke-width="0.51893"/>
</g>
<path d="M184.787 75.7788C178.702 75.7788 173.741 80.4203 173.741 86.8132C173.741 93.1671 178.702 97.8476 184.787 97.8476C190.876 97.8476 195.836 93.1671 195.836 86.8132C195.833 80.4203 190.873 75.7788 184.787 75.7788ZM184.787 93.5044C181.452 93.5044 178.577 90.7465 178.577 86.8158C178.577 82.8436 181.455 80.1271 184.787 80.1271C188.123 80.1271 190.997 82.8436 190.997 86.8158C190.997 90.7439 188.123 93.5044 184.787 93.5044ZM160.687 75.7788C154.602 75.7788 149.641 80.4203 149.641 86.8132C149.641 93.1671 154.602 97.8476 160.687 97.8476C166.776 97.8476 171.736 93.1671 171.736 86.8132C171.736 80.4203 166.776 75.7788 160.687 75.7788ZM160.687 93.5044C157.352 93.5044 154.477 90.7465 154.477 86.8158C154.477 82.8436 157.355 80.1271 160.687 80.1271C164.023 80.1271 166.897 82.8436 166.897 86.8158C166.9 90.7439 164.023 93.5044 160.687 93.5044ZM132.023 79.1672V83.8477H143.196C142.862 86.4811 141.987 88.4036 140.652 89.7398C139.027 91.3691 136.484 93.1671 132.023 93.1671C125.145 93.1671 119.769 87.6071 119.769 80.7109C119.769 73.8147 125.145 68.2547 132.023 68.2547C135.734 68.2547 138.443 69.718 140.443 71.599L143.737 68.2962C140.942 65.6213 137.234 63.5742 132.023 63.5742C122.602 63.5742 114.682 71.2643 114.682 80.7109C114.682 90.1575 122.602 97.8476 132.023 97.8476C137.107 97.8476 140.945 96.1742 143.944 93.04C147.028 89.9473 147.988 85.599 147.988 82.0886C147.988 81.0041 147.905 80 147.737 79.1646L132.023 79.1672ZM249.257 82.8021C248.341 80.3373 245.547 75.7788 239.836 75.7788C234.167 75.7788 229.455 80.2517 229.455 86.8132C229.455 92.9985 234.126 97.8476 240.377 97.8476C245.42 97.8476 248.339 94.755 249.55 92.957L245.798 90.4481C244.548 92.2876 242.838 93.4992 240.377 93.4992C237.919 93.4992 236.167 92.3706 235.042 90.1549L249.757 84.0526L249.257 82.8021ZM234.25 86.4811C234.126 82.2157 237.544 80.0441 240.004 80.0441C241.922 80.0441 243.547 81.0067 244.09 82.3844L234.25 86.4811ZM222.288 97.1808H227.121V64.7469H222.288V97.1808ZM214.365 78.2461H214.199C213.115 76.9489 211.03 75.7788 208.406 75.7788C202.902 75.7788 197.859 80.6279 197.859 86.8573C197.859 93.0426 202.902 97.8502 208.406 97.8502C211.032 97.8502 213.115 96.6801 214.199 95.3439H214.365V96.9318C214.365 101.153 212.114 103.41 208.489 103.41C205.529 103.41 203.694 101.28 202.944 99.4822L198.734 101.239C199.942 104.163 203.151 107.759 208.489 107.759C214.158 107.759 218.953 104.414 218.953 96.2624V76.4507H214.368L214.365 78.2461ZM208.823 93.5044C205.487 93.5044 202.695 90.7024 202.695 86.8573C202.695 82.9681 205.487 80.1271 208.823 80.1271C212.114 80.1271 214.699 82.9681 214.699 86.8573C214.699 90.7024 212.114 93.5044 208.823 93.5044ZM271.908 64.7469H260.34V97.1808H265.165V84.8933H271.906C277.257 84.8933 282.52 81.0093 282.52 74.8214C282.52 68.6335 277.259 64.7469 271.908 64.7469ZM272.033 80.3788H265.165V69.2614H272.033C275.642 69.2614 277.691 72.258 277.691 74.8214C277.691 77.3329 275.642 80.3788 272.033 80.3788ZM301.872 75.7217C298.376 75.7217 294.756 77.2654 293.258 80.6876L297.543 82.4804C298.459 80.6876 300.166 80.1012 301.954 80.1012C304.451 80.1012 306.99 81.6034 307.031 84.2732V84.6079C306.156 84.1071 304.283 83.3573 301.996 83.3573C297.377 83.3573 292.673 85.9025 292.673 90.6582C292.673 94.9988 296.461 97.7931 300.705 97.7931C303.949 97.7931 305.74 96.3324 306.863 94.6201H307.028V97.1237H311.691V84.6883C311.694 78.9337 307.404 75.7217 301.872 75.7217ZM301.287 93.4966C299.708 93.4966 297.501 92.7027 297.501 90.7413C297.501 88.2376 300.249 87.2776 302.622 87.2776C304.741 87.2776 305.742 87.7368 307.031 88.3621C306.656 91.3691 304.076 93.4966 301.287 93.4966ZM328.67 76.43L323.136 90.4922H322.97L317.226 76.43H312.025L320.639 96.0834L315.728 107.017H320.763L334.039 76.43H328.67ZM285.185 97.1808H290.01V64.7469H285.185V97.1808Z" fill="white"/>
<path d="M131.422 45.5624C131.422 47.6972 130.781 49.3963 129.496 50.665C128.038 52.1731 126.135 52.9272 123.798 52.9272C121.559 52.9272 119.654 52.1629 118.09 50.6344C116.524 49.1034 115.74 47.208 115.74 44.9459C115.74 42.6811 116.524 40.7858 118.09 39.2573C119.654 37.7263 121.559 36.962 123.798 36.962C124.91 36.962 125.972 37.176 126.981 37.6014C127.991 38.0294 128.801 38.5975 129.405 39.3083L128.043 40.6533C127.017 39.4433 125.603 38.8395 123.796 38.8395C122.162 38.8395 120.75 39.4051 119.559 40.5361C118.367 41.6672 117.772 43.1371 117.772 44.9433C117.772 46.7495 118.367 48.2194 119.559 49.3505C120.75 50.4816 122.162 51.0471 123.796 51.0471C125.528 51.0471 126.973 50.479 128.128 49.3403C128.878 48.599 129.312 47.5672 129.429 46.2451H123.796V44.4083H131.311C131.388 44.8083 131.422 45.193 131.422 45.5624Z" fill="white"/>
<path d="M143.34 39.1785H136.277V44.0238H142.647V45.8606H136.277V50.7059H143.34V52.586H134.284V37.301H143.34V39.1785Z" fill="white"/>
<path d="M151.744 52.586H149.751V39.1785H145.418V37.301H156.077V39.1785H151.744V52.586Z" fill="white"/>
<path d="M163.788 52.586V37.301H165.781V52.586H163.788Z" fill="white"/>
<path d="M174.621 52.586H172.627V39.1785H168.295V37.301H178.953V39.1785H174.621V52.586Z" fill="white"/>
<path d="M199.13 50.6116C197.605 52.1554 195.71 52.9273 193.443 52.9273C191.175 52.9273 189.281 52.1554 187.758 50.6116C186.233 49.0678 185.473 47.1776 185.473 44.9434C185.473 42.7093 186.233 40.819 187.758 39.2753C189.281 37.7315 191.175 36.957 193.443 36.957C195.697 36.957 197.589 37.734 199.12 39.2854C200.65 40.8369 201.415 42.722 201.415 44.9434C201.415 47.1776 200.653 49.0678 199.13 50.6116ZM189.229 49.3302C190.377 50.4766 191.78 51.0472 193.443 51.0472C195.105 51.0472 196.511 50.4741 197.657 49.3302C198.804 48.1839 199.381 46.7216 199.381 44.9434C199.381 43.1653 198.804 41.703 197.657 40.5566C196.511 39.4103 195.105 38.8396 193.443 38.8396C191.78 38.8396 190.377 39.4128 189.229 40.5566C188.084 41.703 187.507 43.1653 187.507 44.9434C187.507 46.7216 188.084 48.1839 189.229 49.3302Z" fill="white"/>
<path d="M204.213 52.586V37.301H206.637L214.176 49.1901H214.261L214.176 46.2452V37.301H216.169V52.586H214.088L206.201 40.1185H206.115L206.201 43.0634V52.586H204.213Z" fill="white"/>
<path d="M131.422 45.5624C131.422 47.6972 130.781 49.3963 129.496 50.665C128.038 52.1731 126.135 52.9272 123.798 52.9272C121.559 52.9272 119.654 52.1629 118.09 50.6344C116.524 49.1034 115.74 47.208 115.74 44.9459C115.74 42.6811 116.524 40.7858 118.09 39.2573C119.654 37.7263 121.559 36.962 123.798 36.962C124.91 36.962 125.972 37.176 126.981 37.6014C127.991 38.0294 128.801 38.5975 129.405 39.3083L128.043 40.6533C127.017 39.4433 125.603 38.8395 123.796 38.8395C122.162 38.8395 120.75 39.4051 119.559 40.5361C118.367 41.6672 117.772 43.1371 117.772 44.9433C117.772 46.7495 118.367 48.2194 119.559 49.3505C120.75 50.4816 122.162 51.0471 123.796 51.0471C125.528 51.0471 126.973 50.479 128.128 49.3403C128.878 48.599 129.312 47.5672 129.429 46.2451H123.796V44.4083H131.311C131.388 44.8083 131.422 45.193 131.422 45.5624Z" stroke="white" stroke-width="0.106127" stroke-miterlimit="10"/>
<path d="M143.34 39.1785H136.277V44.0238H142.647V45.8606H136.277V50.7059H143.34V52.586H134.284V37.301H143.34V39.1785Z" stroke="white" stroke-width="0.106127" stroke-miterlimit="10"/>
<path d="M151.744 52.586H149.751V39.1785H145.418V37.301H156.077V39.1785H151.744V52.586Z" stroke="white" stroke-width="0.106127" stroke-miterlimit="10"/>
<path d="M163.788 52.586V37.301H165.781V52.586H163.788Z" stroke="white" stroke-width="0.106127" stroke-miterlimit="10"/>
<path d="M174.621 52.586H172.627V39.1785H168.295V37.301H178.953V39.1785H174.621V52.586Z" stroke="white" stroke-width="0.106127" stroke-miterlimit="10"/>
<path d="M199.13 50.6116C197.605 52.1554 195.71 52.9273 193.443 52.9273C191.175 52.9273 189.281 52.1554 187.758 50.6116C186.233 49.0678 185.473 47.1776 185.473 44.9434C185.473 42.7093 186.233 40.819 187.758 39.2753C189.281 37.7315 191.175 36.957 193.443 36.957C195.697 36.957 197.589 37.734 199.12 39.2854C200.65 40.8369 201.415 42.722 201.415 44.9434C201.415 47.1776 200.653 49.0678 199.13 50.6116ZM189.229 49.3302C190.377 50.4766 191.78 51.0472 193.443 51.0472C195.105 51.0472 196.511 50.4741 197.657 49.3302C198.804 48.1839 199.381 46.7216 199.381 44.9434C199.381 43.1653 198.804 41.703 197.657 40.5566C196.511 39.4103 195.105 38.8396 193.443 38.8396C191.78 38.8396 190.377 39.4128 189.229 40.5566C188.084 41.703 187.507 43.1653 187.507 44.9434C187.507 46.7216 188.084 48.1839 189.229 49.3302Z" stroke="white" stroke-width="0.106127" stroke-miterlimit="10"/>
<path d="M204.213 52.586V37.301H206.637L214.176 49.1901H214.261L214.176 46.2452V37.301H216.169V52.586H214.088L206.201 40.1185H206.115L206.201 43.0634V52.586H204.213Z" stroke="white" stroke-width="0.106127" stroke-miterlimit="10"/>
<defs>
<filter id="filter0_ii_1863_14690" x="35.5508" y="36.957" width="63.2559" height="70.9688" filterUnits="userSpaceOnUse" color-interpolation-filters="sRGB">
<feFlood flood-opacity="0" result="BackgroundImageFix"/>
<feBlend mode="normal" in="SourceGraphic" in2="BackgroundImageFix" result="shape"/>
<feColorMatrix in="SourceAlpha" type="matrix" values="0 0 0 0 0 0 0 0 0 0 0 0 0 0 0 0 0 0 127 0" result="hardAlpha"/>
<feOffset dy="-0.41255"/>
<feComposite in2="hardAlpha" operator="arithmetic" k2="-1" k3="1"/>
<feColorMatrix type="matrix" values="0 0 0 0 0 0 0 0 0 0 0 0 0 0 0 0 0 0 0.12 0"/>
<feBlend mode="normal" in2="shape" result="effect1_innerShadow_1863_14690"/>
<feColorMatrix in="SourceAlpha" type="matrix" values="0 0 0 0 0 0 0 0 0 0 0 0 0 0 0 0 0 0 127 0" result="hardAlpha"/>
<feOffset dy="0.41255"/>
<feComposite in2="hardAlpha" operator="arithmetic" k2="-1" k3="1"/>
<feColorMatrix type="matrix" values="0 0 0 0 1 0 0 0 0 1 0 0 0 0 1 0 0 0 0.25 0"/>
<feBlend mode="normal" in2="effect1_innerShadow_1863_14690" result="effect2_innerShadow_1863_14690"/>
</filter>
<filter id="filter1_i_1863_14690" x="36.8203" y="72.4395" width="45.7129" height="35.4863" filterUnits="userSpaceOnUse" color-interpolation-filters="sRGB">
<feFlood flood-opacity="0" result="BackgroundImageFix"/>
<feBlend mode="normal" in="SourceGraphic" in2="BackgroundImageFix" result="shape"/>
<feColorMatrix in="SourceAlpha" type="matrix" values="0 0 0 0 0 0 0 0 0 0 0 0 0 0 0 0 0 0 127 0" result="hardAlpha"/>
<feOffset dy="-0.41255"/>
<feComposite in2="hardAlpha" operator="arithmetic" k2="-1" k3="1"/>
<feColorMatrix type="matrix" values="0 0 0 0 0 0 0 0 0 0 0 0 0 0 0 0 0 0 0.08 0"/>
<feBlend mode="normal" in2="shape" result="effect1_innerShadow_1863_14690"/>
</filter>
</defs>
</svg>
