<svg width="239" height="69" viewBox="0 0 239 69" fill="none" xmlns="http://www.w3.org/2000/svg">
<rect width="238.766" height="68.7971" rx="20.2344" fill="white"/>
<path d="M95.5855 10.1498C96.1346 7.91874 99.3889 8.18992 99.5612 10.4811L100.607 24.3859C100.703 25.665 101.952 26.5317 103.184 26.1744L116.576 22.2907C118.783 21.6507 120.175 24.6046 118.277 25.8995L106.758 33.7575C105.699 34.4805 105.572 35.9952 106.498 36.8835L116.557 46.5397C118.215 48.1308 116.353 50.8135 114.283 49.8171L101.718 43.7705C100.562 43.2142 99.187 43.8623 98.8804 45.1079L95.5477 58.6478C94.9985 60.8789 91.7442 60.6077 91.5719 58.3165L90.5261 44.4117C90.4298 43.1326 89.1812 42.2659 87.9491 42.6232L74.5569 46.5069C72.3501 47.1469 70.9578 44.193 72.8559 42.8982L84.3749 35.0401C85.4345 34.3172 85.5608 32.8024 84.6353 31.9141L74.5758 22.258C72.9182 20.6668 74.7802 17.9841 76.8506 18.9805L89.4154 25.0271C90.5713 25.5834 91.9462 24.9353 92.2528 23.6897L95.5855 10.1498Z" fill="#FDA1B2"/>
<path d="M182.049 27.623H199.647V31.2619H192.757V44.0279H188.939V31.2619H182.049V27.623Z" fill="black"/>
<path d="M179.418 40.0001C178.255 43.0127 174.915 44.6233 171.306 44.6233C165.609 44.6233 162.357 40.6862 162.357 35.8244C162.357 30.5152 166.205 27.0254 171.306 27.0254C175.183 27.0254 179.568 29.0835 179.926 35.4068L179.955 37.435H166.295C166.831 39.6422 168.621 41.1634 171.306 41.1634C173.423 41.1634 175.243 40.2089 175.78 38.8071L179.418 40.0001ZM166.295 34.1541H175.75C175.571 31.5293 173.423 30.4853 171.306 30.4853C168.86 30.4853 166.921 31.8872 166.295 34.1541Z" fill="black"/>
<path d="M146.901 27.623L150.718 27.6529C155.043 27.7125 157.43 29.6513 157.43 32.3357C157.43 33.5288 156.952 34.4236 156.087 35.05C158.593 35.7658 159.219 37.2273 159.219 38.838C159.219 41.075 158.026 43.8788 152.508 43.9981L146.901 44.0279H143.262V27.623H146.901ZM147.378 33.9165C148.959 33.9165 149.346 33.9165 150.897 33.8569C152.896 33.7972 153.701 33.1709 153.701 32.3357C153.701 31.5006 152.896 30.904 150.868 30.8742L146.901 30.8444V33.9165H147.378ZM146.901 40.7469C148.72 40.7469 150.838 40.7768 152.538 40.7171C154.536 40.6575 155.491 39.8521 155.491 38.838C155.491 37.8239 154.536 37.0186 152.508 36.9887L146.99 36.9589H146.901V40.7469Z" fill="black"/>
<path d="M139.67 38.9562C138.686 42.8635 135.226 44.6233 131.468 44.6233C125.771 44.6233 122.52 40.6862 122.52 35.8244C122.52 30.7239 126.069 27.0254 131.468 27.0254C134.808 27.0254 138.447 28.4273 139.67 32.6925L136.091 33.8856C135.494 31.7082 133.705 30.6046 131.468 30.6046C128.157 30.6046 126.248 32.961 126.248 35.8244C126.248 38.6878 128.157 41.0441 131.468 41.0441C133.585 41.0441 135.435 40.0598 136.091 37.7631L139.67 38.9562Z" fill="black"/>
<path d="M90.577 44.6233C85.1783 44.6233 81.6289 40.9844 81.6289 35.8244C81.6289 30.4257 85.4766 27.0254 90.577 27.0254C95.6774 27.0254 99.5251 30.4257 99.5251 35.8244C99.5251 40.9844 95.9757 44.6233 90.577 44.6233ZM90.577 41.0441C93.5895 41.0441 95.7967 38.6878 95.7967 35.8244C95.7967 32.961 93.5895 30.6046 90.577 30.6046C87.5645 30.6046 85.3573 32.961 85.3573 35.8244C85.3573 38.6878 87.5645 41.0441 90.577 41.0441Z" fill="black"/>
<path d="M65.1006 27.6219V28.7852C66.2638 27.6219 67.8446 27.0254 69.9922 27.0254C75.0926 27.0254 78.9403 30.4257 78.9403 35.8244C78.9403 40.9844 75.3909 44.6233 70.2905 44.6233C68.471 44.6233 66.7709 44.1461 65.3988 43.1916V50.887H61.6406V27.6219H65.1006ZM70.2905 41.0441C73.303 41.0441 75.2119 38.6878 75.2119 35.8244C75.2119 32.961 73.303 30.6046 70.2905 30.6046C67.8148 30.6046 65.1602 32.2153 65.1602 35.8244C65.1602 39.4334 67.8148 41.0441 70.2905 41.0441Z" fill="black"/>
<path d="M57.1719 27.623V44.0279H53.4733V31.1426H44.1673V44.0279H40.4688V27.623H57.1719Z" fill="black"/>
</svg>
