<svg width="312" height="102" viewBox="0 0 312 102" fill="none" xmlns="http://www.w3.org/2000/svg">
<g clip-path="url(#clip0_1875_7944)">
<path d="M107.738 3.42383C108.811 -0.937301 115.173 -0.407376 115.509 4.07129L117.554 31.251C117.742 33.7514 120.183 35.4457 122.591 34.7471L148.769 27.1556C153.082 25.9048 155.804 31.6787 152.094 34.2098L129.577 49.5699C127.506 50.9831 127.259 53.9439 129.068 55.6803L148.732 74.5553C151.972 77.6655 148.332 82.9094 144.285 80.9618L119.725 69.1425C117.465 68.055 114.778 69.3218 114.179 71.7565L107.664 98.2231C106.591 102.584 100.229 102.054 99.8926 97.5756L97.8483 70.3959C97.6601 67.8955 95.2194 66.2012 92.811 66.8998L66.6332 74.4913C62.3197 75.7423 59.598 69.9682 63.3084 67.4371L85.8245 52.077C87.8958 50.6638 88.1425 47.7031 86.3337 45.9666L66.6702 27.0916C63.4299 23.9814 67.0697 18.7375 71.1168 20.6851L95.6772 32.5047C97.9367 33.5919 100.624 32.3251 101.223 29.8904L107.738 3.42383Z" fill="#6B86E7"/>
<path d="M276.746 37.5723H311.147V44.6852H297.676V69.6388H290.214V44.6852H276.746V37.5723Z" fill="black"/>
<path d="M271.605 61.768C269.331 67.6567 262.802 70.8051 255.747 70.8051C244.611 70.8051 238.256 63.1091 238.256 53.6056C238.256 43.2276 245.777 36.4062 255.747 36.4062C263.325 36.4062 271.897 40.4291 272.595 52.7894L272.655 56.754H245.952C247.001 61.0684 250.5 64.042 255.747 64.042C259.886 64.042 263.442 62.1762 264.491 59.4359L271.605 61.768ZM245.952 50.3406H264.434C264.084 45.21 259.886 43.1693 255.747 43.1693C250.966 43.1693 247.176 45.9096 245.952 50.3406Z" fill="black"/>
<path d="M208.045 37.5723L215.507 37.6305C223.961 37.7471 228.625 41.5368 228.625 46.7839C228.625 49.1163 227.693 50.8653 226.002 52.0896C230.899 53.489 232.124 56.3458 232.124 59.4942C232.124 63.8669 229.792 69.3474 219.006 69.5805L208.045 69.6388H200.932V37.5723H208.045ZM208.977 49.8741C212.067 49.8741 212.825 49.8741 215.857 49.7575C219.763 49.641 221.338 48.4164 221.338 46.7839C221.338 45.1515 219.763 43.9854 215.799 43.9271L208.045 43.8689V49.8741H208.977ZM208.045 63.2256C211.601 63.2256 215.741 63.2839 219.064 63.1674C222.97 63.0506 224.836 61.4764 224.836 59.4942C224.836 57.5118 222.97 55.9376 219.006 55.8793L208.219 55.821H208.045V63.2256Z" fill="black"/>
<path d="M193.909 59.7276C191.985 67.3653 185.222 70.8051 177.876 70.8051C166.74 70.8051 160.385 63.1091 160.385 53.6056C160.385 43.6358 167.323 36.4062 177.876 36.4062C184.406 36.4062 191.519 39.1465 193.909 47.4838L186.913 49.8158C185.747 45.5599 182.248 43.4027 177.876 43.4027C171.404 43.4027 167.673 48.0085 167.673 53.6056C167.673 59.2028 171.404 63.8087 177.876 63.8087C182.015 63.8087 185.63 61.8848 186.913 57.3953L193.909 59.7276Z" fill="black"/>
<path d="M97.946 70.8051C87.3932 70.8051 80.4551 63.6921 80.4551 53.6056C80.4551 43.0528 87.9762 36.4062 97.946 36.4062C107.916 36.4062 115.437 43.0528 115.437 53.6056C115.437 63.6921 108.499 70.8051 97.946 70.8051ZM97.946 63.8087C103.835 63.8087 108.149 59.2028 108.149 53.6056C108.149 48.0085 103.835 43.4027 97.946 43.4027C92.0573 43.4027 87.7431 48.0085 87.7431 53.6056C87.7431 59.2028 92.0573 63.8087 97.946 63.8087Z" fill="black"/>
<path d="M48.1439 37.5723V39.8461C50.4177 37.5723 53.5079 36.4062 57.7055 36.4062C67.6755 36.4062 75.1964 43.0528 75.1964 53.6056C75.1964 63.6921 68.2585 70.8051 58.2888 70.8051C54.7322 70.8051 51.4089 69.8722 48.7269 68.0066V83.0487H41.3809V37.5723H48.1439ZM58.2888 63.8087C64.1772 63.8087 67.9086 59.2028 67.9086 53.6056C67.9086 48.0085 64.1772 43.4027 58.2888 43.4027C53.4496 43.4027 48.2605 46.5509 48.2605 53.6056C48.2605 60.6602 53.4496 63.8087 58.2888 63.8087Z" fill="black"/>
<path d="M32.6497 37.5723V69.6388H25.4202V44.4519H7.2296V69.6388H0V37.5723H32.6497Z" fill="black"/>
</g>
<defs>
<clipPath id="clip0_1875_7944">
<rect width="311.139" height="101.183" fill="white"/>
</clipPath>
</defs>
</svg>
