<svg width="512" height="302" viewBox="0 0 512 302" fill="none" xmlns="http://www.w3.org/2000/svg">
<path d="M66.76 100.15C50.8003 78.1308 78.1291 50.8021 100.148 66.7618L206.724 144.01C219.017 152.921 236.393 148.265 242.584 134.402L296.256 14.2165C307.344 -10.614 344.676 -0.610449 341.865 26.4379L328.255 157.358C326.685 172.459 339.406 185.18 354.507 183.61L485.427 170C512.476 167.189 522.479 204.521 497.649 215.61L377.463 269.281C363.6 275.472 358.945 292.849 367.855 305.141L445.103 411.717C461.063 433.736 433.734 461.065 411.716 445.105L305.14 367.856C292.847 358.946 275.47 363.602 269.28 377.465L215.608 497.65C204.519 522.481 167.187 512.477 169.999 485.429L183.608 354.509C185.178 339.408 172.458 326.687 157.357 328.257L26.4361 341.866C-0.61227 344.678 -10.6157 307.346 14.2148 296.257L134.4 242.586C148.263 236.395 152.919 219.018 144.009 206.725L66.76 100.15Z" fill="#C3F4FF"/>
</svg>
