<svg width="162" height="146" viewBox="0 0 162 146" fill="none" xmlns="http://www.w3.org/2000/svg">
<path d="M108.541 3.04241C113.468 -3.68002 124.006 1.72924 121.415 9.65096L108.877 47.9939C107.431 52.4166 110.42 57.0495 115.046 57.555L155.148 61.9375C163.433 62.8429 164.017 74.6736 155.862 76.3912L116.387 84.7046C111.834 85.6635 109.316 90.5685 111.191 94.827L127.447 131.748C130.805 139.376 120.852 145.797 115.286 139.593L88.3493 109.563C85.2422 106.1 79.7355 106.372 76.985 110.125L53.1386 142.663C48.2119 149.385 37.674 143.976 40.2644 136.054L52.8022 97.7113C54.2484 93.2887 51.2594 88.6557 46.6339 88.1502L6.53183 83.7678C-1.75331 82.8623 -2.33772 71.0316 5.81785 69.3141L45.2928 61.0007C49.846 60.0418 52.3638 55.1368 50.4888 50.8782L34.2331 13.9576C30.8746 6.32971 40.8281 -0.091756 46.3934 6.1124L73.3304 36.142C76.4374 39.6057 81.9442 39.3337 84.6947 35.5806L108.541 3.04241Z" fill="#FDA1B2"/>
</svg>
