<svg width="161" height="162" viewBox="0 0 161 162" fill="none" xmlns="http://www.w3.org/2000/svg">
<path d="M19.5341 33.1991C14.3653 26.3805 22.7775 17.5996 29.8114 22.4714L63.8573 46.0521C67.7843 48.7719 73.2189 47.1902 75.0728 42.7877L91.1452 4.61978C94.4658 -3.26577 106.277 -0.370848 105.575 8.15653L102.177 49.431C101.785 54.1918 105.872 58.1074 110.611 57.5118L151.702 52.3476C160.192 51.2807 163.59 62.9565 155.854 66.6121L118.411 84.3059C114.092 86.3468 112.744 91.8442 115.63 95.651L140.648 128.655C145.817 135.473 137.405 144.254 130.371 139.382L96.3252 115.802C92.3983 113.082 86.9637 114.664 85.1098 119.066L69.0373 157.234C65.7167 165.12 53.9059 162.225 54.608 153.697L58.006 112.423C58.3979 107.662 54.3107 103.746 49.5711 104.342L8.48015 109.506C-0.00928703 110.573 -3.4078 98.8974 4.32815 95.2418L41.772 77.5479C46.0909 75.5071 47.4383 70.0097 44.5526 66.2029L19.5341 33.1991Z" fill="#FFDB6F"/>
</svg>
